<svg xmlns="http://www.w3.org/2000/svg" width="1000.058" height="1000.058" viewBox="0 0 1518 1518">
  <defs>
    <style>
      .cls-1 {
        fill-rule: evenodd;
      }
    </style>
  </defs>
  <path id="Color_Fill_2" data-name="Color Fill 2" class="cls-1" d="M916,124c-0.613-3.968-2.087-7.729-3-12-5.731-2.5-11.091-4.72-15-9-34.733.913-56.529,53.958-71,78-3.462,5.751-9.6,24.878-16,26v8c-3.162-.008-1.345-1.694-3,1-3.637,6.34-4.258,24.266-11,30-1.545.707-.135,0.129-3,0,0.072,0.857-9.9,35.688-12,39l-4,2c-4.4,7.3-4.98,14.609-8,23-4.59,12.753-12.4,26.709-16,41h2c7.369-6.544,13.384-3.921,22-8,3.014-1.427,5.678-5.5,9-7,4.863-2.189,8.829-1.62,14-4,38.281-17.622,75.013-34.5,114-49,11.728-4.363,22.593-4.959,34-10,2.912-1.287,5.837-4.678,9-6,3.649-1.525,11.659-6.6,14-5a14.148,14.148,0,0,1,10,13c-4.937,4.659-7.079,12.061-11,16-6.645,6.675-15.424,11.253-22,18-7.641,7.839-14.168,18.523-23,25-12.279,9-21.6,19.243-32,30-2.8,2.9-7.567,4.8-10,8-4.732,6.219-7.328,12.568-12,19-5.62,7.736-13.62,14.972-19,23-3.462,5.167-5.045,11.278-9,16-15.179,18.124-39.566,52.358-36,85,2.106,1.539,2.937,4.62,5,6,5.44,3.64,14.677,3.435,18,9h-1c-3.156,3.189-6.336,4.1-13,4-5.61-2.872-16.044-3.763-20-11-7.093-12.975-5.768-27.914-1-42,1.486-4.389.67-8.518,3-12,31.374-46.886,57.073-96.837,98-134l4-1,12-12,8-10c6.189-4.671,15.867-9.635,18-18-1.281.022-26.775,4.86-27,5-0.693.431-1.115,3.433-2,4a65.707,65.707,0,0,1-7,3l-12,1c-8.126,2.292-16.063,8.194-23,11h-6c-2.816.926-3.949,3.732-6,5-3.842,2.374-8.427,1.483-12,4-4.2,2.957-8.647,16.316-14,18-0.2,2.328-.193,2.826-1,4-1.725,4.258-5.8,6.385-8,10-3.118,5.119-3.713,10.128-7,15-1.294,1.918-4.546,2.336-6,4q-1,3.5-2,7c-3.51,4-11.326,9.485-14,14-2.285,3.859-1.76,7.108-4,11l-4,3c-1.849,3.324-.876,7.132-3,10l-4,2c-2.224,2.811-1.11,5.441-3,9-1.241,2.336-5.369,4-7,6-5.831,7.148-5.774,22.577-17,24-0.4,5.343-2.169,6.138-3,11h-3v5c-9.624,3.986-11.353,14.9-17,23-5.8,8.321-16.212,15.162-21,24-7.875,14.538-12.993,50.829-13,70-2.266-.4-1.084-0.918-3,0-5.71,8.152-5.573,38.457-21,39-2.435-1.271-5.591.97-7,0-14.2-4.717-10.532-32.883-11-50h3c2.687,11.153,9.918,23.406,15,33,0.8-1.021.355-.274,1-2,3.843-5.677,1.949-11.924,4-20,3.981-15.671,5.334-31.455,9-46l-1-1c-9.167,6.357-16.065,16.033-25,22-10.33,6.9-21.919,11.913-33,18l-5-1c-10.621,1.548-12.736,1.372-21-2h-6l-6-6-6-1c-3.961-2.983-3.862-9.1-7-13-16.2-20.127-14.256-30.953-14-63-4.475-1.716-4.644-5.794-8-8-5.987-3.936-10.787-6.086-17-10-2.889-1.82-3.252-4.581-7-6-1.1,7.394-6.774,10.851-10,16q-0.5,3-1,6c-2.582,5.411-7.618,11.248-11,16l-1,4h-4c-3.307,2.911-1.7,9.946-4,14-6.33,11.164-11.39,19.061-20,28-3.745-1.134-8.46-4.584-10-8-5.93-7.468,1.871-20.086,4-26,4.423-12.285,3-20.68,7-34,2.472-8.235,7.548-13.984,9-24-3.662-.6-6.509-1-8-4-2.2-2.395-2.141-6.127-2-11,4.1-1.3,13.955-3.712,18-6,5.395-3.051,6.089-10.136,9-16,1.925-3.876,6.084-8.419,8-12,1.826-3.412,1-6.985,3-10l5-4c3.121-5.412,2.976-10.625,6-16,1.463-2.6,5.369-5.361,7-8l4-11c10.4-17.823,19.717-36.433,30-55,2.77-5,9.14-9.3,12-14,8.245-13.564,15.025-26.1,24-39l12-12c9.554-12.772,39.318-49.535,58-50,2.042,3.616,5.373,3.511,7,8,0.961,1.418.976,3.273,1,6a11.568,11.568,0,0,0-2,3h-2c-0.828-3.245.49-1.528-2-3-1.35,1.624-.64,1.121-3,2,0.508,3.1.8,3.266,0,6-4.372.157-10.323,2.043-12,5-1.154,2.067-1.193,6.035-2,9h-2v-2c0.752-1.073.6-.946,1-3h-3c-2.283,6.616-9.281,8.069-13,13-7.92,10.5-15.551,20.3-24,30-5.753,6.6-8.91,14.7-14,22-8.316,11.923-17.411,25.135-26,37q-1,4-2,8c-6.279,10.787-13.447,23.218-20,34-2.163,3.559-1.827,7.22-4,11-7.354,12.8-24.8,33.618-27,50h2c3.783-3.492,12.357-8.066,17-10,4.625-1.927,8.486-.366,12-3,7.2-5.4,13.374-13.82,19-21,3.315-4.231,9.429-6.817,13-11l9-1c3.486,5.727,6.179,5.368,6,16h2c5.98-6.691,29.2-10.122,39-14,16.559-6.554,36.024-14.625,53-21,8.712-3.272,34.572-10.062,38-16,3.8-4.616,3.824-11.659,6-18,4.651-13.55,10.33-31.181,17-44,6.918-13.3,14.129-29.142,20-43q1-5.5,2-11c5.436-14.108,14.315-30.393,22-43,3-4.928,3.143-10.738,6-16,8.155-15.022,17.922-30.7,27-45,5.949-9.374,11.1-20.509,18-29,5.125-6.3,14.245-9.266,20-15,3.429-3.416,5.132-7.958,10-10l19-1c3.091,3.807,9.123,5.019,12,9,2.349,3.25,1.026,5.744,3,10l3,2c3.845,7.3,4.124,11.5,5,20h-2C919.705,124.123,918.533,124.106,916,124ZM887,95c-0.255,2.205-.165,3.186,1,6l1-1c0.589-.962.107-1.913,0-5h-2ZM447,348h3c0.372-2.076.242-1.924,1-3v1c2.725,5.187.292,18,1,26,0.646,7.3,4.594,12.477,3,23-0.437,2.884-2.225,1.048-2,4,0.387,5.078,5.115,11.1,6,15,0.747,3.292-2.787,10.25-3,14-0.373,6.571,3.523,13.51,3,19-0.161,1.686-2.7,6.134-3,7q-0.5,8-1,16c-0.163.3-2.734,1.272-3,2-1.559,4.26.892,15.193,0,17l-3,1-4,17h-3c-3.568,28.474-33.654,47.968-59,56-10.482,3.322-26.145,7.68-41,4-6.688-1.657-22.715-5.726-28-9-3.265-2.023-3.977-5.439-8-7-1.667,1.938-1.439,1.668-5,2-8.247-11.017-20.942-13.932-28-26q-0.5-2.5-1-5a275.3,275.3,0,0,1-13-29c-4.479-11.9-12.714-25.841-15-40h-4c-3.17,6.9-8.6,12.815-12,19-7.117,12.953-10.9,26.089-19,38-0.6.889-3.53,1.277-4,2v6c-0.553,1.153-2.88,4.376-4,6-2.091,3.031-9.5,6.782-11,9v7l-5,3q-0.5,3-1,6c-5.89,9.187-17.633,19.719-25,28-6.149,6.912-26.485,30.866-37,25-17.066-4.232-37.5-39.407-31-67l4-19c-2.051-17.324,8.734-48.706,14-64,1.481-4.3.2-7.277,2-11,2.3-4.774,6.145-11.709,8-17q0.5-4,1-8c12.448-29.934,28.715-58.329,45-85,2.272-3.721,8.154-9.562,11-13,2.11-2.548,2.072-6.446,4-9,5.463-7.234,12.7-6.883,17-17h3v-4l1-1c5.93-.879,10.687-2,16,2,1.142,1.69,1.066,4.9,1,8-6.273,7.259-4.069,8.281-15,9-1.567,3.276-3.23,4.867-4,9-2.076.372-1.924,0.242-3,1-8.088,8.713-15.6,21.033-22,31-1.367,2.131-.514,4.786-2,7a391.708,391.708,0,0,0-46,94c-6.1,18.619-8.528,39.6-14,58q-0.5,7-1,14c-2.691,9.816-2.451,24.331-2,35,0.02,0.48-1.858,4.8-1,7,0.914,2.348,5.017,6.666,6,9,4.665,11.079.4,15.119,17,15,8.756-8.912,16.786-18.524,25-28q0.5-2.5,1-5l5-3c4.554-4.6,7.957-9.837,12-15,1.928-2.463,6.128-3.5,8-6,2.091-2.792,1.023-5.651,3-9,2.056-3.483,8.02-7.348,10-11,3.735-6.889,4.939-13.434,9-20,3.585-5.8,9.661-12.27,13-18,2.089-3.585,1.6-6.811,4-10l3-1c2-3.343,1.123-6.735,3-10,2.764-4.808,8.112-10.286,11-15,3.167-5.17,1.066-10.523,7-13,4.453-3.291,11.262-.673,14,3,5.886,8.775,3.6,25.6,6,35,4.368,17.089,12.526,34,20,48,1.425,2.669.441,5.607,2,8,8.446,12.968,31.453,26.91,48,32l17,1c5.449,1.307,16.148,3.655,23,1,17.471-6.769,37.482-18.22,46-34,2.778-5.146,3.14-8.908,6-14,1.149-2.047,5.023-4.728,6-7v-6l3-2c4.137-9.169,12.117-47.375,8-63-5.6-21.243-8.86-50.752-9-71-0.141-20.451-10.395-63.7,5-70,8.666-6.782,26.8-.794,35,1l-1,1c-5.021,4.389-9.417-.77-14,1-3.368,1.3-6.474,8.8-11,7-1.546-1.133-.843-1.085-3-2v1h-1c0.508,4.538-3.364,10.126-2,16,0.616,2.652,3.252,7.127,4,10C449.738,328.522,447.387,342.638,447,348Zm495-60c-0.02,2.773-1.16,2.166,3,3q0.5-1.5,1-3h-4ZM579,316v4h1v-1c0.8-1.021.355-.274,1-2Zm248,17c-5.659,7.465-24.866,10.105-34,15-6.972,3.737-15.332,12.016-22,15-5,2.239-12.682,2.183-16,6v4c-2.157,2.576-7.506,1.713-10,4-5.393,4.945-8.034,26.518-11,35-9.295,26.576-18.214,55.326-24,85h3c2.153-3.279,7.3-4.882,9-8,1.583-2.9.366-5.521,2-8,5.728-8.693,14.329-17.281,20-26,3.794-5.834,4.924-11.555,9-17,0.973-1.3,2.669.01,4-1,1.266-.961,4.2-5.713,5-7l3-9,10-12c1.4-1.037,4.122-.547,5-2v-5c1.93-4.148,6.1-9.954,9-14l10-10c2.474-3.338,3.285-7.82,6-11,1.958-2.293,6.187-3.72,8-6q0.5-2.5,1-5c1.24-1.822,4.736-2.383,6-4,1.5-1.918.75-5.013,2-7,2.373-3.773,5.494-4.759,7-10h1l-1-1C827.979,333.2,828.726,333.645,827,333ZM448,351l-1,3h2v-1c0.8-1.021.355-.274,1-2h-2Zm1,12v2l3,1v-2h-1C449.979,363.2,450.726,363.645,449,363Zm277,18c-9.648.873-16.923,6.148-24,9-2.116.853-9.285-.563-13,2q-1,2-2,4l-12,2c-4.888,1.761-11.728,4.932-16,7-2.459,1.19-6.115,1.335-8,0l-3,5-10,1c-2.73,1.492-4.7,5.527-8,7-8.586,3.827-19.119,4.438-26,10-9.468,10.349-21.312,55.651-23,71,6.68,3.811,8.4,8.179,13,14,2.27,2.872,7.326,2.981,10,5,2.455,1.855,3.807,6.726,6,9-0.631,1.754-.193.971-1,2l-2,2c-4.748-1.812-7.188-5.875-11-8l-5-1c-0.861-.569-1.321-3.579-2-4h-8c-1.36-.663-0.884-2.076-3-3v7c-0.545.842-1.917,17.375-1,20,0.564,1.615,3.274,3.431,4,5,8.326,17.98,23.653,34.519,46,23,13.954-7.193,23.065-19.026,35-28,4.025-3.026,7.975-4.974,12-8l9-10c1.484-.983,2.965.307,4-1,6.447-8.143,9.246-38.559,13-51,2.774-9.192,6.761-20.565,9-30q-0.5-3-1-6l3-3c5.312-12.529,6.22-24.128,10-38C722.329,390.122,725.14,386.384,726,381Zm-275,6v3h3v-3h-3Zm271,32c0.828,3.245-.49,1.528,2,3v-1c0.8-1.021.355-.274,1-2h-3Zm297,28v3c-11.1,6.8-21.984,11.67-34,18-8.556,4.507-15.964,12.925-27,12v4c-15.125,10.043-46.885,20.65-55,36-21.886,41.4-3.627,92.166,25,115,1.864,1.487,5.03.807,7,2,7.884,4.772,17.661,10.941,27,14,16.46,5.392,30.034,2.193,48,5,6.9,1.079,28.28-.086,39-2,19.21-3.431,44.08-2.552,65-7,10.16-2.16,23.38,1.78,36-1,20.9-4.605,45.29-3.765,69-7l7,1c8.68-1.56,22.52-.458,31-2l18,1c5.65-1.113,21.05-.608,28,1l22,1c20.49,5.261,43.38,10.716,49,31,4.02,14.507-11.92,36.44-17,44-16.6,24.7-35.98,46.518-55,69-6.41,7.575-15.91,12.914-22,21-9.68,12.85-21.8,25-31,38-5.92,8.364-10.05,16.661-16,25-3.12,4.37-9.34,8.443-12,13-3.81,6.519-5.03,12.01-9,18-5,7.554-12.86,14.855-17,23-0.33,2.333-.67,4.667-1,7q-4.005,3-8,6c-0.33,1.667-.67,3.333-1,5-1.75,3.039-6.04,6.064-8,9-2.99,4.491-3.17,9.068-6,14-1.67,1.667-3.33,3.333-5,5-1.78,3.709-.98,6.282-3,10-1.67,1.333-3.33,2.667-5,4l-3,9q-3.495,3.5-7,7c-4.39,8.06-6.69,19.97-12,27-4.55,6.03-11.03,15.07-14,22-0.33,2-.67,4-1,6-3.77,6.46-9.79,14.05-13,21q-4.005,12-8,24c-15.17,26.82-24.73,56.16-37,86-2.36,5.73-12.62,26.75-12,30,0.89,4.63-3.95,10.53-5,14-1.97,6.5-.75,10.97-3,17-2.41,6.46-6.69,15.43-9,22-4.42,12.56-2.67,25.43-6,40-3.61,15.82-6.13,37.02-9,51-3.8,18.5,1.61,58.35,15,63,6.14,4.71,19.27-2.38,25-5v2c-3.9,3.41-4.57,8.99-10,11-4.72,3.68-15.55,5.82-23,6-33.372-28.03-24.05-80.85-15-127,1.88-9.61.86-24.06,4-36,1.97-7.47,5.7-16,8-23,5.94-18.07,8.52-34.68,16-50,4.23-8.67,3.57-19.71,8-29,8.18-17.17,15.04-39.12,24-56,3.67-6.9,3.46-14.06,7-21,43.25-84.67,86.62-168.246,140-243,19.55-27.384,43.42-51.3,63-79l6-4c7.24-7,13.48-15.272,20-23h2c2.12-2.7,1.77-6.536,4-9,15.05-16.662,36.3-32.558,40-60-2.67-1.479-2.7-4.411-5-6-5.62-3.881-12.35-4.164-19-7-2.45-1.047-5.22-4.392-8-5-3.7-.808-11.8,1.36-18,0-19.42-4.263-46.52-1.685-67-1-19.91.666-46.03,0.189-66,5l-18-1c-7.82,1.775-19.91,3.093-28,5-7,1.649-12.63-1.873-21,0a170.4,170.4,0,0,1-40,4c-9.75-.3-29.47,3.346-39,5-2.71.47-4.29-1.882-8-2l-20,1c-6.185-1.45-16.322-3.863-22-3-5.759.875-7.352-3.432-12-1-1.494-.851-2.9-3.335-5-4-35.51-11.231-64.219-32.438-77-66-4.394-11.539-2.795-23.795-5-35-2.827-14.37-.18-30.876,4-41-2.3-1.605-1.51-2.142-5-3-5.253,4.373-18.965,4.032-25,8-0.739-3.955-.094-3.212-4-4-1.573,2.63-2.412,4.142-6,5v-1c1.563-1.626,2.178-3.572,4-5,1.415-.908,3.874-0.052,6-1l7-7,8-1c3.339-1.456,7.565-5.46,11-7,5.478-2.456,9.142-2.1,14-5,5.761-3.435,10.486-11.889,16-16,14.838-11.061,27.634-22.529,44-32,4.984-2.884,9.844-9.253,15-12,7.464-3.977,14.352-3.77,23-7,8.388-3.133,13.02-7.764,26-8,4.59,5.479,12.28,6.45,13,16-1.77.961-1.68,1.257-4,2C1020.93,446.752,1021.05,446.6,1019,447Zm-470,6h-4q-0.5,3.5-1,7c-2.512,1.2-4.18,1.042-6,2-0.7,1.213-1.85,8.424-2,12,8.509,4.219,16.821,9.814,27,13,1-17.138,11.831-31.314,13-49l-1-1h-2c-2.508,4.216-18.464,10.663-24,12v4Zm-24,4c-5.5.643-7.131,2.943-11,5q0.5,1.5,1,3a23.654,23.654,0,0,1,8,1v-2C524.772,462.081,524.9,460.864,525,457Zm-18,18c-6.364,6.992-11.663,18.309-12,31h1c5.709-8.931,14.767-17.086,16-30h-2C508.927,475.248,509.054,475.4,507,475ZM955,658q0.5,1.5,1,3h1v-3h-2Zm23,6c0.828,3.245-.49,1.528,2,3v-1l1-1h-1C978.979,664.2,979.726,664.645,978,664Z"/>
</svg>
